<mxfile host="app.diagrams.net" modified="2024-02-01T08:34:39.553Z" agent="Mozilla/5.0 (Windows NT 10.0; Win64; x64) AppleWebKit/537.36 (KHTML, like Gecko) Chrome/121.0.0.0 Safari/537.36" etag="7HenDL2M3MxSKmFVUn7k" version="23.1.0" type="github">
  <diagram name="Page-1" id="099fd60b-425b-db50-ffb0-6b813814b670">
    <mxGraphModel dx="404" dy="205" grid="1" gridSize="10" guides="1" tooltips="1" connect="1" arrows="1" fold="1" page="1" pageScale="1" pageWidth="850" pageHeight="1100" background="none" math="0" shadow="0">
      <root>
        <mxCell id="0" />
        <mxCell id="1" parent="0" />
        <mxCell id="Ggsiz-e9Q-3ihbVxombZ-2" value="" style="verticalLabelPosition=bottom;dashed=0;shadow=0;html=1;align=center;verticalAlign=top;shape=mxgraph.cabinets.motor_cb_1_32a;" vertex="1" parent="1">
          <mxGeometry x="730" y="327" width="27" height="43" as="geometry" />
        </mxCell>
        <mxCell id="Ggsiz-e9Q-3ihbVxombZ-3" value="" style="verticalLabelPosition=bottom;dashed=0;shadow=0;html=1;align=center;verticalAlign=top;shape=mxgraph.cabinets.plugin_relay_2;" vertex="1" parent="1">
          <mxGeometry x="757" y="440" width="12" height="40" as="geometry" />
        </mxCell>
        <mxCell id="Ggsiz-e9Q-3ihbVxombZ-4" value="" style="html=1;shape=mxgraph.electrical.electro-mechanical.fuse2;aspect=fixed;elSwitchState=off;" vertex="1" parent="1">
          <mxGeometry x="740" y="260" width="75" height="20" as="geometry" />
        </mxCell>
        <mxCell id="Ggsiz-e9Q-3ihbVxombZ-7" value="M" style="verticalLabelPosition=middle;shadow=0;dashed=0;align=center;html=1;verticalAlign=middle;strokeWidth=1;shape=ellipse;aspect=fixed;fontSize=35;strokeColor=default;" vertex="1" parent="1">
          <mxGeometry x="630" y="310" width="60" height="60" as="geometry" />
        </mxCell>
        <mxCell id="Ggsiz-e9Q-3ihbVxombZ-8" value="" style="edgeStyle=none;orthogonalLoop=1;jettySize=auto;html=1;rounded=0;strokeWidth=3;strokeColor=default;endArrow=none;endFill=0;" edge="1" parent="1">
          <mxGeometry width="80" relative="1" as="geometry">
            <mxPoint x="105" y="81" as="sourcePoint" />
            <mxPoint x="665" y="81" as="targetPoint" />
            <Array as="points" />
          </mxGeometry>
        </mxCell>
        <mxCell id="Ggsiz-e9Q-3ihbVxombZ-9" value="" style="edgeStyle=none;orthogonalLoop=1;jettySize=auto;html=1;rounded=0;strokeWidth=3;strokeColor=default;endArrow=none;endFill=0;" edge="1" parent="1">
          <mxGeometry width="80" relative="1" as="geometry">
            <mxPoint x="105" y="101" as="sourcePoint" />
            <mxPoint x="665" y="100" as="targetPoint" />
            <Array as="points" />
          </mxGeometry>
        </mxCell>
        <mxCell id="Ggsiz-e9Q-3ihbVxombZ-10" value="" style="edgeStyle=none;orthogonalLoop=1;jettySize=auto;html=1;rounded=0;strokeWidth=3;strokeColor=default;endArrow=none;endFill=0;" edge="1" parent="1">
          <mxGeometry width="80" relative="1" as="geometry">
            <mxPoint x="105" y="121" as="sourcePoint" />
            <mxPoint x="665" y="120" as="targetPoint" />
            <Array as="points" />
          </mxGeometry>
        </mxCell>
        <mxCell id="Ggsiz-e9Q-3ihbVxombZ-11" value="" style="edgeStyle=none;orthogonalLoop=1;jettySize=auto;html=1;rounded=0;strokeWidth=3;strokeColor=default;endArrow=none;endFill=0;" edge="1" parent="1">
          <mxGeometry width="80" relative="1" as="geometry">
            <mxPoint x="185" y="81" as="sourcePoint" />
            <mxPoint x="745" y="81" as="targetPoint" />
            <Array as="points" />
          </mxGeometry>
        </mxCell>
        <mxCell id="Ggsiz-e9Q-3ihbVxombZ-12" value="" style="edgeStyle=none;orthogonalLoop=1;jettySize=auto;html=1;rounded=0;strokeWidth=3;strokeColor=default;endArrow=none;endFill=0;" edge="1" parent="1">
          <mxGeometry width="80" relative="1" as="geometry">
            <mxPoint x="185" y="101" as="sourcePoint" />
            <mxPoint x="745" y="100" as="targetPoint" />
            <Array as="points" />
          </mxGeometry>
        </mxCell>
        <mxCell id="Ggsiz-e9Q-3ihbVxombZ-13" value="" style="edgeStyle=none;orthogonalLoop=1;jettySize=auto;html=1;rounded=0;strokeWidth=3;strokeColor=default;endArrow=none;endFill=0;" edge="1" parent="1">
          <mxGeometry width="80" relative="1" as="geometry">
            <mxPoint x="185" y="121" as="sourcePoint" />
            <mxPoint x="745" y="120" as="targetPoint" />
            <Array as="points" />
          </mxGeometry>
        </mxCell>
        <mxCell id="Ggsiz-e9Q-3ihbVxombZ-15" value="" style="html=1;shape=mxgraph.electrical.electro-mechanical.singleSwitch;aspect=fixed;elSwitchState=off;rotation=-90;strokeWidth=2;" vertex="1" parent="1">
          <mxGeometry x="200" y="230" width="75" height="20" as="geometry" />
        </mxCell>
        <mxCell id="Ggsiz-e9Q-3ihbVxombZ-16" value="" style="html=1;shape=mxgraph.electrical.electro-mechanical.singleSwitch;aspect=fixed;elSwitchState=off;rotation=-90;strokeWidth=2;" vertex="1" parent="1">
          <mxGeometry x="250" y="230" width="75" height="20" as="geometry" />
        </mxCell>
        <mxCell id="Ggsiz-e9Q-3ihbVxombZ-17" value="" style="html=1;shape=mxgraph.electrical.electro-mechanical.singleSwitch;aspect=fixed;elSwitchState=off;rotation=-90;strokeWidth=2;" vertex="1" parent="1">
          <mxGeometry x="295" y="230" width="75" height="20" as="geometry" />
        </mxCell>
        <mxCell id="Ggsiz-e9Q-3ihbVxombZ-18" value="" style="pointerEvents=1;verticalLabelPosition=bottom;shadow=0;dashed=0;align=center;html=1;verticalAlign=top;shape=mxgraph.electrical.signal_sources.signal_ground;" vertex="1" parent="1">
          <mxGeometry x="721" y="220" width="45" height="30" as="geometry" />
        </mxCell>
        <mxCell id="Ggsiz-e9Q-3ihbVxombZ-19" value="" style="verticalLabelPosition=bottom;shadow=0;dashed=0;align=center;html=1;verticalAlign=top;shape=mxgraph.electrical.rot_mech.verticalLabelPosition=bottom;shadow=0;dashed=0;align=center;fillColor=strokeColor;html=1;verticalAlign=top;strokeWidth=1;shape=mxgraph.electrical.rot_mech.rotation;" vertex="1" parent="1">
          <mxGeometry x="630" y="243" width="69" height="54" as="geometry" />
        </mxCell>
        <mxCell id="Ggsiz-e9Q-3ihbVxombZ-44" value="" style="whiteSpace=wrap;html=1;fillColor=none;strokeWidth=2;" vertex="1" parent="1">
          <mxGeometry x="165" y="222.5" width="35" height="35" as="geometry" />
        </mxCell>
        <mxCell id="Ggsiz-e9Q-3ihbVxombZ-45" style="edgeStyle=none;rounded=0;orthogonalLoop=1;jettySize=auto;html=1;exitX=0.5;exitY=0;exitDx=0;exitDy=0;entryX=0.5;entryY=1;entryDx=0;entryDy=0;endArrow=none;endFill=0;strokeWidth=2;" edge="1" parent="1" source="Ggsiz-e9Q-3ihbVxombZ-44" target="Ggsiz-e9Q-3ihbVxombZ-44">
          <mxGeometry relative="1" as="geometry" />
        </mxCell>
        <mxCell id="Ggsiz-e9Q-3ihbVxombZ-46" style="edgeStyle=none;rounded=0;orthogonalLoop=1;jettySize=auto;html=1;exitX=0;exitY=0.5;exitDx=0;exitDy=0;entryX=1;entryY=0.5;entryDx=0;entryDy=0;endArrow=none;endFill=0;strokeWidth=2;" edge="1" parent="1" source="Ggsiz-e9Q-3ihbVxombZ-44" target="Ggsiz-e9Q-3ihbVxombZ-44">
          <mxGeometry relative="1" as="geometry" />
        </mxCell>
        <mxCell id="Ggsiz-e9Q-3ihbVxombZ-47" value="" style="edgeStyle=none;orthogonalLoop=1;jettySize=auto;html=1;rounded=0;strokeWidth=2;endArrow=none;endFill=0;" edge="1" parent="1">
          <mxGeometry width="80" relative="1" as="geometry">
            <mxPoint x="149" y="240" as="sourcePoint" />
            <mxPoint x="159" y="240" as="targetPoint" />
            <Array as="points" />
          </mxGeometry>
        </mxCell>
        <mxCell id="Ggsiz-e9Q-3ihbVxombZ-48" value="" style="edgeStyle=none;orthogonalLoop=1;jettySize=auto;html=1;rounded=0;strokeWidth=2;endArrow=none;endFill=0;" edge="1" parent="1">
          <mxGeometry width="80" relative="1" as="geometry">
            <mxPoint x="149" y="230" as="sourcePoint" />
            <mxPoint x="149" y="250" as="targetPoint" />
            <Array as="points" />
          </mxGeometry>
        </mxCell>
        <mxCell id="Ggsiz-e9Q-3ihbVxombZ-49" value="" style="edgeStyle=none;orthogonalLoop=1;jettySize=auto;html=1;rounded=0;endArrow=none;endFill=0;dashed=1;entryX=0.505;entryY=0.344;entryDx=0;entryDy=0;entryPerimeter=0;strokeWidth=2;" edge="1" parent="1" target="Ggsiz-e9Q-3ihbVxombZ-17">
          <mxGeometry width="80" relative="1" as="geometry">
            <mxPoint x="200" y="239.84" as="sourcePoint" />
            <mxPoint x="280" y="239.84" as="targetPoint" />
            <Array as="points" />
          </mxGeometry>
        </mxCell>
        <mxCell id="Ggsiz-e9Q-3ihbVxombZ-51" value="" style="whiteSpace=wrap;html=1;fillColor=none;strokeWidth=2;" vertex="1" parent="1">
          <mxGeometry x="220" y="280" width="140" height="80" as="geometry" />
        </mxCell>
        <mxCell id="Ggsiz-e9Q-3ihbVxombZ-53" value="" style="edgeStyle=none;orthogonalLoop=1;jettySize=auto;html=1;rounded=0;entryX=1;entryY=0.5;entryDx=0;entryDy=0;strokeWidth=2;endArrow=none;endFill=0;" edge="1" parent="1" target="Ggsiz-e9Q-3ihbVxombZ-51">
          <mxGeometry width="80" relative="1" as="geometry">
            <mxPoint x="220" y="319.81" as="sourcePoint" />
            <mxPoint x="300" y="319.81" as="targetPoint" />
            <Array as="points" />
          </mxGeometry>
        </mxCell>
      </root>
    </mxGraphModel>
  </diagram>
</mxfile>
